# 3ds Max Wavefront OBJ Exporter v0.97b - (c)2007 guruware
# File Created: 15.11.2014 15:23:02

mtllib Rock2.mtl

#
# object GeoSphere001
#

v  0.1362 1.1883 -0.1362
v  0.7272 1.1758 -0.2393
v  0.4111 1.1301 -0.7286
v  1.1133 0.7180 -0.2198
v  0.9984 0.7705 -0.7441
v  0.4954 0.7132 -1.1884
v  -0.1374 0.9505 -0.3467
v  -0.0508 0.6558 -0.9983
v  -0.4262 0.3463 -0.4274
v  -0.3938 0.8673 0.2713
v  -0.5969 0.4079 0.0630
v  -0.6858 0.3859 0.6240
v  0.2163 1.0560 0.2714
v  -0.3334 0.7563 0.6198
v  0.2063 0.4910 0.5129
v  0.7243 0.6853 0.2559
v  0.9642 0.2989 0.0457
v  1.1998 0.2342 -0.5723
v  0.7392 -0.3173 0.2734
v  0.9751 -0.2371 -0.2020
v  0.9523 -0.2176 -0.7781
v  0.8815 0.1805 -1.1314
v  0.2830 0.1362 -1.1883
v  0.4418 -0.2610 -1.0225
v  -0.0331 -0.3658 -0.9672
v  -0.2941 0.0695 -0.8157
v  -0.7023 -0.1366 -0.1104
v  -0.5227 -0.6088 -0.4345
v  -0.7748 -0.5975 0.0358
v  -0.9379 -0.0387 0.5076
v  -0.6895 0.0993 0.8024
v  -0.6328 -0.5988 0.5655
v  -0.3194 -0.2196 0.7341
v  -0.2378 0.1953 0.8117
v  0.4861 0.0058 0.4867
v  0.2012 -0.4382 0.5955
v  0.1953 -0.8117 -0.1953
v  -0.1433 -0.6240 -0.7153
v  0.4428 -0.5471 -0.3379
v  -0.3507 -0.8410 -0.1543
v  -0.0092 -0.6819 0.2847
v  0.6353 -0.6038 0.2801
# 42 vertices

vn 0.0044 0.9954 -0.0958
vn 0.7625 0.6387 -0.1032
vn 0.4755 0.7929 -0.3812
vn 0.4195 0.7094 -0.5663
vn -0.4809 0.8224 -0.3040
vn -0.3043 0.6773 -0.6698
vn -0.5276 0.7455 -0.4073
vn -0.8403 0.4433 -0.3122
vn -0.5879 0.7973 -0.1366
vn -0.8285 0.4419 -0.3438
vn -0.8262 0.4907 -0.2767
vn -0.8859 0.4474 -0.1229
vn -0.2774 0.8965 0.3455
vn -0.6829 0.6535 0.3265
vn -0.2785 0.9001 0.3351
vn 0.3494 0.3629 0.8638
vn 0.0717 0.9528 0.2951
vn 0.2973 0.3707 0.8799
vn 0.4744 0.6241 0.6209
vn 0.6266 0.5519 0.5503
vn 0.9263 -0.0991 0.3635
vn 0.8935 -0.1733 0.4142
vn 0.9184 -0.1504 0.3659
vn 0.8854 -0.4620 -0.0508
vn 0.0973 -0.0361 -0.9946
vn 0.3938 -0.5700 -0.7211
vn 0.1141 -0.3435 -0.9322
vn -0.0206 -0.3921 -0.9197
vn -0.8718 0.2068 -0.4441
vn -0.6872 -0.1658 -0.7073
vn -0.8670 0.0123 -0.4982
vn -0.8814 -0.0110 -0.4723
vn -0.7924 0.3296 0.5133
vn -0.8643 -0.4469 0.2306
vn -0.6613 -0.2886 0.6924
vn -0.1089 -0.3273 0.9386
vn 0.4457 0.2100 0.8702
vn 0.1668 -0.2129 0.9627
vn 0.4020 -0.0336 0.9150
vn 0.5312 -0.1358 0.8363
vn 0.8503 -0.2567 -0.4595
vn 0.5960 0.3548 -0.7204
vn 0.8512 0.1596 -0.5000
vn 0.9387 0.2962 -0.1761
vn -0.5397 -0.0307 -0.8413
vn -0.8655 0.2188 -0.4505
vn -0.5389 -0.0385 -0.8415
vn -0.3378 0.1241 -0.9330
vn -0.9322 0.0324 -0.3605
vn -0.8406 0.5298 -0.1125
vn -0.8777 0.2912 -0.3807
vn -0.8941 0.2835 -0.3468
vn 0.0195 -0.1876 0.9821
vn 0.3468 0.3560 0.8677
vn -0.0853 0.3095 0.9471
vn -0.4821 0.4673 0.7411
vn 0.6671 0.0313 0.7443
vn 0.7633 0.1296 0.6329
vn 0.6728 0.0153 0.7397
vn 0.3848 0.1729 0.9067
vn 0.4446 -0.7102 -0.5458
vn 0.0760 -0.7127 -0.6973
vn 0.3467 -0.8653 -0.3621
vn 0.2546 -0.8922 -0.3731
vn 0.0237 -0.9353 -0.3531
vn -0.5705 -0.7693 -0.2875
vn -0.3659 -0.8144 -0.4504
vn -0.5406 -0.4578 -0.7058
vn 0.0730 -0.9545 0.2892
vn 0.2729 -0.5702 0.7749
vn 0.0209 -0.9450 0.3263
vn -0.4536 -0.8832 0.1195
vn 0.1167 -0.9451 0.3053
vn 0.5344 -0.1745 0.8270
vn 0.1029 -0.8154 0.5697
vn -0.1314 -0.7349 0.6653
vn 0.6297 -0.7309 -0.2631
vn 0.5120 -0.8576 -0.0493
vn 0.5336 -0.8108 -0.2406
vn 0.8720 -0.3074 0.3809
# 80 vertex normals

vt 0.6000 1.0000 1.0000
vt 0.5000 0.8238 1.0000
vt 0.7000 0.8238 1.0000
vt 0.5000 0.6476 1.0000
vt 0.6000 0.6762 1.0000
vt 0.7000 0.6476 1.0000
vt 0.8000 1.0000 1.0000
vt 0.9000 0.8238 1.0000
vt 0.8000 0.6762 1.0000
vt 0.9000 0.6476 1.0000
vt 0.0000 1.0000 1.0000
vt -0.1000 0.8238 1.0000
vt 0.1000 0.8238 1.0000
vt -0.1000 0.6476 1.0000
vt 0.0000 0.6762 1.0000
vt 0.1000 0.6476 1.0000
vt 0.2000 1.0000 1.0000
vt 0.3000 0.8238 1.0000
vt 0.2000 0.6762 1.0000
vt 0.3000 0.6476 1.0000
vt 0.4000 1.0000 1.0000
vt 0.4000 0.6762 1.0000
vt 0.4500 0.5000 1.0000
vt 0.5500 0.5000 1.0000
vt 0.4000 0.3524 1.0000
vt 0.5000 0.3238 1.0000
vt 0.6000 0.3524 1.0000
vt 0.6500 0.5000 1.0000
vt 0.7500 0.5000 1.0000
vt 0.7000 0.3238 1.0000
vt 0.8000 0.3524 1.0000
vt 0.8500 0.5000 1.0000
vt 0.9500 0.5000 1.0000
vt 0.9000 0.3238 1.0000
vt -0.0500 0.5000 1.0000
vt -0.1000 0.3238 1.0000
vt 0.0000 0.3524 1.0000
vt 0.0500 0.5000 1.0000
vt 0.1500 0.5000 1.0000
vt 0.1000 0.3238 1.0000
vt 0.2000 0.3524 1.0000
vt 0.2500 0.5000 1.0000
vt 0.3500 0.5000 1.0000
vt 0.3000 0.3238 1.0000
vt 0.7000 0.0000 1.0000
vt 0.8000 0.1762 1.0000
vt 0.6000 0.1762 1.0000
vt -0.1000 0.0000 1.0000
vt 0.0000 0.1762 1.0000
vt -0.2000 0.1762 1.0000
vt 0.1000 0.0000 1.0000
vt 0.2000 0.1762 1.0000
vt 0.3000 0.0000 1.0000
vt 0.4000 0.1762 1.0000
vt 0.5000 0.0000 1.0000
# 55 texture coords

g GeoSphere001
usemtl wire_198225087
s off
f 1/1/1 2/2/1 3/3/1 
f 2/2/2 4/4/2 5/5/2 
f 2/2/3 5/5/3 3/3/3 
f 3/3/4 5/5/4 6/6/4 
f 1/7/5 3/3/5 7/8/5 
f 3/3/6 6/6/6 8/9/6 
f 3/3/7 8/9/7 7/8/7 
f 7/8/8 8/9/8 9/10/8 
f 1/11/9 7/12/9 10/13/9 
f 7/12/10 9/14/10 11/15/10 
f 7/12/11 11/15/11 10/13/11 
f 10/13/12 11/15/12 12/16/12 
f 1/17/13 10/13/13 13/18/13 
f 10/13/14 12/16/14 14/19/14 
f 10/13/15 14/19/15 13/18/15 
f 13/18/16 14/19/16 15/20/16 
f 1/21/17 13/18/17 2/2/17 
f 13/18/18 15/20/18 16/22/18 
f 13/18/19 16/22/19 2/2/19 
f 2/2/20 16/22/20 4/4/20 
f 4/4/21 17/23/21 18/24/21 
f 17/23/22 19/25/22 20/26/22 
f 17/23/23 20/26/23 18/24/23 
f 18/24/24 20/26/24 21/27/24 
f 6/6/25 22/28/25 23/29/25 
f 22/28/26 21/27/26 24/30/26 
f 22/28/27 24/30/27 23/29/27 
f 23/29/28 24/30/28 25/31/28 
f 9/10/29 26/32/29 27/33/29 
f 26/32/30 25/31/30 28/34/30 
f 26/32/31 28/34/31 27/33/31 
f 27/35/32 28/36/32 29/37/32 
f 12/16/33 30/38/33 31/39/33 
f 30/38/34 29/37/34 32/40/34 
f 30/38/35 32/40/35 31/39/35 
f 31/39/36 32/40/36 33/41/36 
f 15/20/37 34/42/37 35/43/37 
f 34/42/38 33/41/38 36/44/38 
f 34/42/39 36/44/39 35/43/39 
f 35/43/40 36/44/40 19/25/40 
f 21/27/41 22/28/41 18/24/41 
f 22/28/42 6/6/42 5/5/42 
f 22/28/43 5/5/43 18/24/43 
f 18/24/44 5/5/44 4/4/44 
f 25/31/45 26/32/45 23/29/45 
f 26/32/46 9/10/46 8/9/46 
f 26/32/47 8/9/47 23/29/47 
f 23/29/48 8/9/48 6/6/48 
f 29/37/49 30/38/49 27/35/49 
f 30/38/50 12/16/50 11/15/50 
f 30/38/51 11/15/51 27/35/51 
f 27/35/52 11/15/52 9/14/52 
f 33/41/53 34/42/53 31/39/53 
f 34/42/54 15/20/54 14/19/54 
f 34/42/55 14/19/55 31/39/55 
f 31/39/56 14/19/56 12/16/56 
f 19/25/57 17/23/57 35/43/57 
f 17/23/58 4/4/58 16/22/58 
f 17/23/59 16/22/59 35/43/59 
f 35/43/60 16/22/60 15/20/60 
f 37/45/61 38/46/61 39/47/61 
f 38/46/62 25/31/62 24/30/62 
f 38/46/63 24/30/63 39/47/63 
f 39/47/64 24/30/64 21/27/64 
f 37/48/65 40/49/65 38/50/65 
f 40/49/66 29/37/66 28/36/66 
f 40/49/67 28/36/67 38/50/67 
f 38/46/68 28/34/68 25/31/68 
f 37/51/69 41/52/69 40/49/69 
f 41/52/70 33/41/70 32/40/70 
f 41/52/71 32/40/71 40/49/71 
f 40/49/72 32/40/72 29/37/72 
f 37/53/73 42/54/73 41/52/73 
f 42/54/74 19/25/74 36/44/74 
f 42/54/75 36/44/75 41/52/75 
f 41/52/76 36/44/76 33/41/76 
f 37/55/77 39/47/77 42/54/77 
f 39/47/78 21/27/78 20/26/78 
f 39/47/79 20/26/79 42/54/79 
f 42/54/80 20/26/80 19/25/80 
# 0 polygons - 80 triangles

