# 3ds Max Wavefront OBJ Exporter v0.97b - (c)2007 guruware
# File Created: 15.11.2014 15:24:13

mtllib Rock6.mtl

#
# object GeoSphere001
#

v  0.0961 1.0463 -0.0961
v  0.5746 0.9093 -0.0506
v  0.2086 0.8908 -0.5779
v  0.9259 0.3749 0.0176
v  0.7360 0.4925 -0.4721
v  0.2631 0.5456 -0.9053
v  -0.3373 0.7500 -0.1773
v  -0.2850 0.5311 -0.7508
v  -0.6429 0.2490 -0.3334
v  -0.4022 0.8203 0.4408
v  -0.8039 0.6236 0.2172
v  -0.8600 0.5219 0.7181
v  0.0398 1.0955 0.4221
v  -0.5037 0.5552 0.8672
v  0.0744 0.5812 0.7960
v  0.5356 0.6045 0.5279
v  0.7902 0.0633 0.3740
v  1.1037 -0.0989 -0.2440
v  0.7854 -0.3796 0.4608
v  1.0302 -0.5804 -0.0894
v  0.8883 -0.4797 -0.5907
v  0.5416 0.0607 -0.8153
v  -0.0860 0.0961 -1.0463
v  0.3378 -0.4233 -1.0639
v  -0.2015 -0.4119 -0.8576
v  -0.6340 -0.1416 -0.7834
v  -0.7984 -0.1875 -0.3418
v  -0.5005 -0.6973 -0.5852
v  -0.7550 -0.3852 -0.1297
v  -1.1119 0.1401 0.2762
v  -0.4901 -0.0829 0.8347
v  -0.6111 -0.4409 0.4148
v  -0.1642 -0.4224 0.8437
v  0.0132 0.0694 0.9537
v  0.6854 0.1762 0.8028
v  0.3247 -0.3893 0.5541
v  0.0694 -0.9537 -0.0694
v  -0.0073 -0.8320 -0.5464
v  0.5714 -0.7507 -0.4182
v  -0.4226 -0.9016 0.0331
v  -0.1970 -0.7483 0.4536
v  0.4518 -0.6099 0.1998
# 42 vertices

vn 0.2881 0.9289 -0.2326
vn 0.8306 0.5208 -0.1971
vn 0.5962 0.6732 -0.4375
vn 0.5712 0.6106 -0.5486
vn -0.4765 0.7980 -0.3689
vn -0.2215 0.6524 -0.7247
vn -0.4675 0.8109 -0.3521
vn -0.7762 0.5623 -0.2854
vn -0.5385 0.8290 -0.1508
vn -0.6205 0.5520 -0.5571
vn -0.3698 0.9180 -0.1433
vn -0.4899 0.8634 0.1204
vn -0.5277 0.8383 -0.1369
vn -0.2718 0.8450 0.4605
vn -0.4775 0.7927 0.3790
vn 0.0727 0.5896 0.8044
vn 0.2801 0.9581 -0.0605
vn 0.3960 0.5572 0.7299
vn 0.5984 0.6915 0.4047
vn 0.7655 0.5465 0.3395
vn 0.8977 0.1000 0.4291
vn 0.9203 0.0654 0.3856
vn 0.8927 0.0083 0.4506
vn 0.9205 -0.2397 -0.3086
vn 0.3466 0.0249 -0.9377
vn 0.6544 0.1089 -0.7483
vn 0.3438 0.3106 -0.8862
vn -0.3502 -0.2552 -0.9013
vn -0.8967 0.3253 -0.3002
vn -0.3876 -0.3908 -0.8349
vn -0.8703 -0.3370 -0.3591
vn -0.8845 -0.4174 -0.2083
vn -0.6948 -0.2987 0.6542
vn -0.7663 -0.6274 0.1384
vn -0.6809 -0.4487 0.5788
vn -0.5736 -0.5343 0.6209
vn 0.1695 0.2717 0.9473
vn 0.4940 -0.3557 0.7934
vn 0.2650 -0.5247 0.8090
vn 0.1829 -0.4911 0.8517
vn 0.7258 0.1910 -0.6608
vn 0.6687 0.2543 -0.6987
vn 0.7258 0.1971 -0.6591
vn 0.8639 0.4496 -0.2271
vn -0.3215 -0.2646 -0.9092
vn -0.8071 0.4378 -0.3960
vn -0.5166 0.3066 -0.7994
vn -0.2519 0.4623 -0.8502
vn -0.8774 -0.4270 -0.2187
vn -0.8425 0.5385 0.0151
vn -0.7214 0.3896 -0.5725
vn -0.8367 0.3069 -0.4536
vn -0.1840 -0.1509 0.9713
vn 0.1049 0.2814 0.9538
vn -0.2142 -0.0542 0.9753
vn -0.3811 -0.0551 0.9229
vn 0.9729 0.0341 0.2288
vn 0.8202 0.2380 0.5202
vn 0.9110 0.3948 0.1187
vn 0.3831 0.5901 0.7107
vn 0.1926 -0.9430 -0.2715
vn -0.2829 -0.6519 -0.7035
vn 0.2287 -0.8324 -0.5048
vn 0.3712 -0.7671 -0.5233
vn -0.1483 -0.9637 -0.2220
vn -0.8265 -0.5573 -0.0800
vn -0.2326 -0.9318 -0.2785
vn -0.1096 -0.6239 -0.7738
vn -0.0252 -0.9348 0.3543
vn -0.5227 -0.6321 0.5720
vn -0.5374 -0.6575 0.5281
vn -0.8520 -0.4934 0.1747
vn 0.3620 -0.7901 0.4947
vn 0.1302 -0.8200 0.5574
vn 0.3812 -0.7172 0.5834
vn 0.3875 -0.7232 0.5717
vn 0.5225 -0.8039 0.2842
vn 0.5166 -0.7994 -0.3069
vn 0.1738 -0.9524 0.2506
vn 0.2596 -0.8642 0.4310
# 80 vertex normals

vt 0.6000 1.0000 1.0000
vt 0.5000 0.8238 1.0000
vt 0.7000 0.8238 1.0000
vt 0.5000 0.6476 1.0000
vt 0.6000 0.6762 1.0000
vt 0.7000 0.6476 1.0000
vt 0.8000 1.0000 1.0000
vt 0.9000 0.8238 1.0000
vt 0.8000 0.6762 1.0000
vt 0.9000 0.6476 1.0000
vt 0.0000 1.0000 1.0000
vt -0.1000 0.8238 1.0000
vt 0.1000 0.8238 1.0000
vt -0.1000 0.6476 1.0000
vt 0.0000 0.6762 1.0000
vt 0.1000 0.6476 1.0000
vt 0.2000 1.0000 1.0000
vt 0.3000 0.8238 1.0000
vt 0.2000 0.6762 1.0000
vt 0.3000 0.6476 1.0000
vt 0.4000 1.0000 1.0000
vt 0.4000 0.6762 1.0000
vt 0.4500 0.5000 1.0000
vt 0.5500 0.5000 1.0000
vt 0.4000 0.3524 1.0000
vt 0.5000 0.3238 1.0000
vt 0.6000 0.3524 1.0000
vt 0.6500 0.5000 1.0000
vt 0.7500 0.5000 1.0000
vt 0.7000 0.3238 1.0000
vt 0.8000 0.3524 1.0000
vt 0.8500 0.5000 1.0000
vt 0.9500 0.5000 1.0000
vt 0.9000 0.3238 1.0000
vt -0.0500 0.5000 1.0000
vt -0.1000 0.3238 1.0000
vt 0.0000 0.3524 1.0000
vt 0.0500 0.5000 1.0000
vt 0.1500 0.5000 1.0000
vt 0.1000 0.3238 1.0000
vt 0.2000 0.3524 1.0000
vt 0.2500 0.5000 1.0000
vt 0.3500 0.5000 1.0000
vt 0.3000 0.3238 1.0000
vt 0.7000 0.0000 1.0000
vt 0.8000 0.1762 1.0000
vt 0.6000 0.1762 1.0000
vt -0.1000 0.0000 1.0000
vt 0.0000 0.1762 1.0000
vt -0.2000 0.1762 1.0000
vt 0.1000 0.0000 1.0000
vt 0.2000 0.1762 1.0000
vt 0.3000 0.0000 1.0000
vt 0.4000 0.1762 1.0000
vt 0.5000 0.0000 1.0000
# 55 texture coords

g GeoSphere001
usemtl wire_198225087
s off
f 1/1/1 2/2/1 3/3/1 
f 2/2/2 4/4/2 5/5/2 
f 2/2/3 5/5/3 3/3/3 
f 3/3/4 5/5/4 6/6/4 
f 1/7/5 3/3/5 7/8/5 
f 3/3/6 6/6/6 8/9/6 
f 3/3/7 8/9/7 7/8/7 
f 7/8/8 8/9/8 9/10/8 
f 1/11/9 7/12/9 10/13/9 
f 7/12/10 9/14/10 11/15/10 
f 7/12/11 11/15/11 10/13/11 
f 10/13/12 11/15/12 12/16/12 
f 1/17/13 10/13/13 13/18/13 
f 10/13/14 12/16/14 14/19/14 
f 10/13/15 14/19/15 13/18/15 
f 13/18/16 14/19/16 15/20/16 
f 1/21/17 13/18/17 2/2/17 
f 13/18/18 15/20/18 16/22/18 
f 13/18/19 16/22/19 2/2/19 
f 2/2/20 16/22/20 4/4/20 
f 4/4/21 17/23/21 18/24/21 
f 17/23/22 19/25/22 20/26/22 
f 17/23/23 20/26/23 18/24/23 
f 18/24/24 20/26/24 21/27/24 
f 6/6/25 22/28/25 23/29/25 
f 22/28/26 21/27/26 24/30/26 
f 22/28/27 24/30/27 23/29/27 
f 23/29/28 24/30/28 25/31/28 
f 9/10/29 26/32/29 27/33/29 
f 26/32/30 25/31/30 28/34/30 
f 26/32/31 28/34/31 27/33/31 
f 27/35/32 28/36/32 29/37/32 
f 12/16/33 30/38/33 31/39/33 
f 30/38/34 29/37/34 32/40/34 
f 30/38/35 32/40/35 31/39/35 
f 31/39/36 32/40/36 33/41/36 
f 15/20/37 34/42/37 35/43/37 
f 34/42/38 33/41/38 36/44/38 
f 34/42/39 36/44/39 35/43/39 
f 35/43/40 36/44/40 19/25/40 
f 21/27/41 22/28/41 18/24/41 
f 22/28/42 6/6/42 5/5/42 
f 22/28/43 5/5/43 18/24/43 
f 18/24/44 5/5/44 4/4/44 
f 25/31/45 26/32/45 23/29/45 
f 26/32/46 9/10/46 8/9/46 
f 26/32/47 8/9/47 23/29/47 
f 23/29/48 8/9/48 6/6/48 
f 29/37/49 30/38/49 27/35/49 
f 30/38/50 12/16/50 11/15/50 
f 30/38/51 11/15/51 27/35/51 
f 27/35/52 11/15/52 9/14/52 
f 33/41/53 34/42/53 31/39/53 
f 34/42/54 15/20/54 14/19/54 
f 34/42/55 14/19/55 31/39/55 
f 31/39/56 14/19/56 12/16/56 
f 19/25/57 17/23/57 35/43/57 
f 17/23/58 4/4/58 16/22/58 
f 17/23/59 16/22/59 35/43/59 
f 35/43/60 16/22/60 15/20/60 
f 37/45/61 38/46/61 39/47/61 
f 38/46/62 25/31/62 24/30/62 
f 38/46/63 24/30/63 39/47/63 
f 39/47/64 24/30/64 21/27/64 
f 37/48/65 40/49/65 38/50/65 
f 40/49/66 29/37/66 28/36/66 
f 40/49/67 28/36/67 38/50/67 
f 38/46/68 28/34/68 25/31/68 
f 37/51/69 41/52/69 40/49/69 
f 41/52/70 33/41/70 32/40/70 
f 41/52/71 32/40/71 40/49/71 
f 40/49/72 32/40/72 29/37/72 
f 37/53/73 42/54/73 41/52/73 
f 42/54/74 19/25/74 36/44/74 
f 42/54/75 36/44/75 41/52/75 
f 41/52/76 36/44/76 33/41/76 
f 37/55/77 39/47/77 42/54/77 
f 39/47/78 21/27/78 20/26/78 
f 39/47/79 20/26/79 42/54/79 
f 42/54/80 20/26/80 19/25/80 
# 0 polygons - 80 triangles

