# 3ds Max Wavefront OBJ Exporter v0.97b - (c)2007 guruware
# File Created: 15.11.2014 15:26:36

mtllib Rock10.mtl

#
# object GeoSphere001
#

v  -0.0725 0.7357 0.0725
v  0.4394 0.7627 -0.0921
v  0.2614 0.6322 -0.4754
v  0.6600 0.5021 -0.1984
v  0.7500 0.7134 -0.6906
v  0.4529 0.4709 -0.7387
v  -0.3710 0.6096 -0.1823
v  -0.1017 0.3978 -0.6088
v  -0.6433 0.2896 -0.3291
v  -0.5646 0.7586 0.4357
v  -1.0581 0.2562 0.1409
v  -0.9369 0.3084 0.7223
v  0.0240 0.5003 0.5246
v  -0.3873 0.1688 1.0093
v  0.1129 0.1316 0.9626
v  0.4876 0.6562 0.3094
v  0.7549 0.0666 0.2399
v  0.7999 0.2188 -0.3781
v  0.5640 -0.3128 0.3748
v  0.5187 -0.5178 -0.1743
v  0.6675 -0.2617 -0.6767
v  0.5958 0.1096 -0.7277
v  0.1085 -0.0725 -0.7357
v  0.4222 -0.5386 -0.5057
v  -0.1294 -0.5739 -0.6273
v  -0.5798 -0.0382 -0.6243
v  -1.1022 -0.1901 -0.0398
v  -0.7670 -0.6932 -0.3441
v  -1.1637 -0.7168 0.0727
v  -1.1472 -0.0600 0.5782
v  -0.8380 -0.2096 0.9937
v  -0.9048 -0.6645 0.6559
v  -0.3309 -0.8100 1.0740
v  -0.2257 -0.3390 1.2643
v  0.3376 0.0484 0.8904
v  0.1443 -0.8481 1.1124
v  -0.3390 -1.2643 0.3390
v  -0.1905 -1.0209 -0.0435
v  0.1352 -0.8642 -0.1757
v  -1.0045 -1.0079 0.2723
v  -0.4487 -1.1897 0.9565
v  0.0890 -0.9295 0.4423
# 42 vertices

vn -0.1349 0.9554 -0.2627
vn 0.7790 0.5119 0.3621
vn -0.2485 0.9463 -0.2068
vn -0.3998 0.6231 -0.6723
vn -0.1626 0.9467 -0.2779
vn -0.2447 0.7374 -0.6296
vn -0.2900 0.7715 -0.5663
vn -0.4452 0.6577 -0.6077
vn -0.1617 0.9466 -0.2790
vn -0.5667 0.6893 -0.4512
vn -0.5542 0.7528 -0.3552
vn -0.7372 0.6692 0.0936
vn 0.3224 0.8661 0.3820
vn -0.2179 0.6459 0.7317
vn 0.2122 0.7133 0.6679
vn 0.1158 0.7714 0.6258
vn 0.0956 0.8912 0.4435
vn 0.0382 0.7683 0.6389
vn -0.1904 0.9430 0.2730
vn 0.7757 0.6269 0.0731
vn 0.9213 0.3568 0.1549
vn 0.9018 -0.4239 0.0837
vn 0.9320 -0.3617 -0.0213
vn 0.9383 -0.3275 0.1110
vn 0.0242 -0.0209 -0.9995
vn -0.3985 -0.1999 -0.8951
vn 0.1480 -0.3557 -0.9228
vn 0.2238 -0.3060 -0.9254
vn -0.7391 0.3660 -0.5655
vn -0.3442 -0.2843 -0.8948
vn -0.7329 -0.0795 -0.6757
vn -0.7212 -0.0632 -0.6899
vn -0.7553 0.1851 0.6287
vn -0.8637 -0.2936 0.4097
vn -0.8171 -0.2616 0.5138
vn -0.6019 -0.4173 0.6809
vn 0.3871 0.2839 0.8772
vn -0.1034 -0.3528 0.9300
vn 0.4986 0.1056 0.8604
vn 0.8904 -0.0811 0.4479
vn 0.8472 0.0917 -0.5234
vn 0.1397 0.0251 -0.9899
vn 0.8723 -0.1952 -0.4484
vn 0.9188 0.2729 0.2851
vn -0.1647 -0.1330 -0.9773
vn -0.4689 0.5391 -0.6996
vn -0.1471 0.1958 -0.9695
vn -0.2442 0.1494 -0.9582
vn -0.9911 0.0960 -0.0923
vn -0.8827 0.4475 0.1439
vn -0.9853 0.1380 -0.1008
vn -0.7215 0.3199 -0.6141
vn -0.4353 -0.2521 0.8643
vn 0.1167 0.4752 0.8721
vn -0.3183 0.3428 0.8839
vn -0.3498 0.3814 0.8557
vn 0.8223 -0.2284 0.5212
vn 0.9025 0.3870 0.1890
vn 0.7988 0.3008 0.5209
vn 0.4346 0.5640 0.7022
vn 0.2271 -0.8591 -0.4587
vn 0.1800 -0.7901 -0.5860
vn 0.0929 -0.7478 -0.6573
vn 0.7455 -0.6665 -0.0095
vn -0.2397 -0.7742 -0.5858
vn -0.5270 -0.6574 -0.5386
vn -0.2103 -0.8356 -0.5075
vn -0.1253 -0.7814 -0.6113
vn -0.3633 -0.9304 0.0478
vn -0.5979 -0.0617 0.7992
vn -0.7677 -0.3653 0.5264
vn -0.8881 -0.2030 0.4124
vn 0.5739 -0.7946 0.1980
vn 0.7926 -0.6096 0.0087
vn 0.4850 -0.8720 0.0659
vn -0.0988 -0.2659 0.9589
vn 0.6212 -0.7828 -0.0362
vn 0.6603 -0.7300 -0.1765
vn 0.6702 -0.7416 -0.0282
vn 0.7907 -0.5920 0.1556
# 80 vertex normals

vt 0.6000 1.0000 1.0000
vt 0.5000 0.8238 1.0000
vt 0.7000 0.8238 1.0000
vt 0.5000 0.6476 1.0000
vt 0.6000 0.6762 1.0000
vt 0.7000 0.6476 1.0000
vt 0.8000 1.0000 1.0000
vt 0.9000 0.8238 1.0000
vt 0.8000 0.6762 1.0000
vt 0.9000 0.6476 1.0000
vt 0.0000 1.0000 1.0000
vt -0.1000 0.8238 1.0000
vt 0.1000 0.8238 1.0000
vt -0.1000 0.6476 1.0000
vt 0.0000 0.6762 1.0000
vt 0.1000 0.6476 1.0000
vt 0.2000 1.0000 1.0000
vt 0.3000 0.8238 1.0000
vt 0.2000 0.6762 1.0000
vt 0.3000 0.6476 1.0000
vt 0.4000 1.0000 1.0000
vt 0.4000 0.6762 1.0000
vt 0.4500 0.5000 1.0000
vt 0.5500 0.5000 1.0000
vt 0.4000 0.3524 1.0000
vt 0.5000 0.3238 1.0000
vt 0.6000 0.3524 1.0000
vt 0.6500 0.5000 1.0000
vt 0.7500 0.5000 1.0000
vt 0.7000 0.3238 1.0000
vt 0.8000 0.3524 1.0000
vt 0.8500 0.5000 1.0000
vt 0.9500 0.5000 1.0000
vt 0.9000 0.3238 1.0000
vt -0.0500 0.5000 1.0000
vt -0.1000 0.3238 1.0000
vt 0.0000 0.3524 1.0000
vt 0.0500 0.5000 1.0000
vt 0.1500 0.5000 1.0000
vt 0.1000 0.3238 1.0000
vt 0.2000 0.3524 1.0000
vt 0.2500 0.5000 1.0000
vt 0.3500 0.5000 1.0000
vt 0.3000 0.3238 1.0000
vt 0.7000 0.0000 1.0000
vt 0.8000 0.1762 1.0000
vt 0.6000 0.1762 1.0000
vt -0.1000 0.0000 1.0000
vt 0.0000 0.1762 1.0000
vt -0.2000 0.1762 1.0000
vt 0.1000 0.0000 1.0000
vt 0.2000 0.1762 1.0000
vt 0.3000 0.0000 1.0000
vt 0.4000 0.1762 1.0000
vt 0.5000 0.0000 1.0000
# 55 texture coords

g GeoSphere001
usemtl wire_198225087
s off
f 1/1/1 2/2/1 3/3/1 
f 2/2/2 4/4/2 5/5/2 
f 2/2/3 5/5/3 3/3/3 
f 3/3/4 5/5/4 6/6/4 
f 1/7/5 3/3/5 7/8/5 
f 3/3/6 6/6/6 8/9/6 
f 3/3/7 8/9/7 7/8/7 
f 7/8/8 8/9/8 9/10/8 
f 1/11/9 7/12/9 10/13/9 
f 7/12/10 9/14/10 11/15/10 
f 7/12/11 11/15/11 10/13/11 
f 10/13/12 11/15/12 12/16/12 
f 1/17/13 10/13/13 13/18/13 
f 10/13/14 12/16/14 14/19/14 
f 10/13/15 14/19/15 13/18/15 
f 13/18/16 14/19/16 15/20/16 
f 1/21/17 13/18/17 2/2/17 
f 13/18/18 15/20/18 16/22/18 
f 13/18/19 16/22/19 2/2/19 
f 2/2/20 16/22/20 4/4/20 
f 4/4/21 17/23/21 18/24/21 
f 17/23/22 19/25/22 20/26/22 
f 17/23/23 20/26/23 18/24/23 
f 18/24/24 20/26/24 21/27/24 
f 6/6/25 22/28/25 23/29/25 
f 22/28/26 21/27/26 24/30/26 
f 22/28/27 24/30/27 23/29/27 
f 23/29/28 24/30/28 25/31/28 
f 9/10/29 26/32/29 27/33/29 
f 26/32/30 25/31/30 28/34/30 
f 26/32/31 28/34/31 27/33/31 
f 27/35/32 28/36/32 29/37/32 
f 12/16/33 30/38/33 31/39/33 
f 30/38/34 29/37/34 32/40/34 
f 30/38/35 32/40/35 31/39/35 
f 31/39/36 32/40/36 33/41/36 
f 15/20/37 34/42/37 35/43/37 
f 34/42/38 33/41/38 36/44/38 
f 34/42/39 36/44/39 35/43/39 
f 35/43/40 36/44/40 19/25/40 
f 21/27/41 22/28/41 18/24/41 
f 22/28/42 6/6/42 5/5/42 
f 22/28/43 5/5/43 18/24/43 
f 18/24/44 5/5/44 4/4/44 
f 25/31/45 26/32/45 23/29/45 
f 26/32/46 9/10/46 8/9/46 
f 26/32/47 8/9/47 23/29/47 
f 23/29/48 8/9/48 6/6/48 
f 29/37/49 30/38/49 27/35/49 
f 30/38/50 12/16/50 11/15/50 
f 30/38/51 11/15/51 27/35/51 
f 27/35/52 11/15/52 9/14/52 
f 33/41/53 34/42/53 31/39/53 
f 34/42/54 15/20/54 14/19/54 
f 34/42/55 14/19/55 31/39/55 
f 31/39/56 14/19/56 12/16/56 
f 19/25/57 17/23/57 35/43/57 
f 17/23/58 4/4/58 16/22/58 
f 17/23/59 16/22/59 35/43/59 
f 35/43/60 16/22/60 15/20/60 
f 37/45/61 38/46/61 39/47/61 
f 38/46/62 25/31/62 24/30/62 
f 38/46/63 24/30/63 39/47/63 
f 39/47/64 24/30/64 21/27/64 
f 37/48/65 40/49/65 38/50/65 
f 40/49/66 29/37/66 28/36/66 
f 40/49/67 28/36/67 38/50/67 
f 38/46/68 28/34/68 25/31/68 
f 37/51/69 41/52/69 40/49/69 
f 41/52/70 33/41/70 32/40/70 
f 41/52/71 32/40/71 40/49/71 
f 40/49/72 32/40/72 29/37/72 
f 37/53/73 42/54/73 41/52/73 
f 42/54/74 19/25/74 36/44/74 
f 42/54/75 36/44/75 41/52/75 
f 41/52/76 36/44/76 33/41/76 
f 37/55/77 39/47/77 42/54/77 
f 39/47/78 21/27/78 20/26/78 
f 39/47/79 20/26/79 42/54/79 
f 42/54/80 20/26/80 19/25/80 
# 0 polygons - 80 triangles

