# 3ds Max Wavefront OBJ Exporter v0.97b - (c)2007 guruware
# File Created: 15.11.2014 15:25:50

mtllib Rock9.mtl

#
# object GeoSphere001
#

v  0.2082 1.5632 -0.2082
v  0.9349 1.2635 -0.1404
v  0.3244 1.2077 -0.7139
v  1.3988 0.6495 -0.1090
v  0.9213 0.6130 -0.5646
v  0.3911 0.6252 -1.1932
v  -0.2631 1.2369 -0.5338
v  -0.2106 0.8673 -1.2320
v  -0.4381 0.7493 -0.8138
v  -0.1215 1.3078 0.0842
v  -0.4360 1.0094 -0.3293
v  -0.4081 0.8510 0.2376
v  0.3986 1.3908 0.2861
v  0.0580 0.6913 0.3860
v  0.6285 0.6355 0.5081
v  1.0132 1.0579 0.4354
v  1.5161 0.4919 0.0764
v  1.4972 0.1100 -0.5416
v  1.1634 0.0681 -0.0057
v  1.2799 -0.3158 -0.5284
v  1.2226 -0.3905 -1.0572
v  0.7863 0.1200 -1.1877
v  0.2696 0.2082 -1.5632
v  0.7704 -0.3209 -1.3415
v  0.3092 -0.1359 -1.3176
v  -0.3893 0.2759 -1.2361
v  -0.4049 0.3760 -0.7858
v  -0.1617 -0.2258 -0.9125
v  -0.4191 0.0327 -0.5987
v  -0.3860 0.6413 -0.1678
v  -0.1120 0.1923 0.3819
v  -0.2546 -0.0941 0.0875
v  0.3109 -0.3017 0.3837
v  0.4830 0.1656 0.4368
v  1.0636 0.3846 0.4303
v  0.6862 -0.2954 0.2765
v  0.1656 -0.4368 -0.1656
v  0.1365 -0.3401 -0.6098
v  0.6118 -0.4263 -0.5565
v  -0.3666 -0.4024 -0.1716
v  0.0070 -0.4297 0.3902
v  0.5900 -0.3403 0.0616
# 42 vertices

vn 0.3730 0.7972 -0.4747
vn 0.6077 0.4248 -0.6710
vn 0.5972 0.4293 -0.6776
vn 0.6567 0.5226 -0.5437
vn -0.1416 0.7942 -0.5909
vn 0.2986 0.6266 -0.7199
vn -0.1009 0.8761 -0.4714
vn -0.8222 0.4751 -0.3134
vn -0.5883 0.8076 0.0422
vn -0.8641 0.4451 -0.2351
vn -0.7489 0.6556 0.0965
vn -0.7990 0.5678 0.1979
vn -0.2983 0.8597 0.4147
vn -0.1514 0.3987 0.9045
vn -0.3867 0.3122 0.8678
vn -0.1827 0.2256 0.9570
vn 0.3606 0.9151 0.1802
vn -0.0966 0.2534 0.9625
vn 0.4115 0.8747 0.2563
vn 0.7905 0.6029 0.1077
vn 0.8949 0.3670 -0.2540
vn 0.5784 -0.5905 0.5628
vn 0.8672 -0.4350 0.2424
vn 0.8898 -0.4551 -0.0323
vn 0.5754 0.4426 -0.6877
vn 0.5424 0.2592 -0.7992
vn 0.5970 0.2449 -0.7639
vn -0.2723 -0.5795 -0.7681
vn -0.9959 -0.0898 -0.0144
vn -0.4408 -0.6191 -0.6499
vn -0.9219 -0.3837 0.0535
vn -0.8375 -0.2344 -0.4937
vn -0.9139 -0.3788 0.1462
vn -0.9716 -0.0992 0.2147
vn -0.8972 -0.0072 0.4415
vn -0.5386 -0.4586 0.7068
vn 0.0760 -0.1725 0.9821
vn 0.2719 -0.2069 0.9398
vn 0.1163 -0.2801 0.9529
vn 0.6904 -0.5012 0.5217
vn 0.6296 0.3624 -0.6872
vn 0.6616 0.5116 -0.5482
vn 0.5444 0.5964 -0.5898
vn 0.5357 0.5856 -0.6083
vn -0.4138 -0.5599 -0.7178
vn -0.8760 0.2676 -0.4012
vn -0.4292 0.1359 -0.8929
vn 0.2855 0.5882 -0.7567
vn -0.9988 0.0470 0.0102
vn -0.9916 -0.1289 0.0128
vn -0.9920 -0.1021 0.0740
vn -0.9951 -0.0849 0.0499
vn -0.0951 -0.0778 0.9924
vn -0.2161 -0.0806 0.9730
vn -0.0909 0.0228 0.9956
vn -0.2754 0.0859 0.9575
vn 0.5793 -0.5909 0.5614
vn 0.7651 0.6410 0.0610
vn 0.6098 0.0397 0.7916
vn 0.1792 0.0060 0.9838
vn -0.1530 -0.9676 -0.2006
vn -0.3653 -0.8669 -0.3392
vn -0.1584 -0.9739 -0.1628
vn -0.0608 -0.9876 -0.1449
vn -0.0608 -0.9761 -0.2085
vn -0.8390 -0.4294 -0.3343
vn -0.1060 -0.9603 -0.2582
vn -0.0692 -0.9539 -0.2920
vn -0.0645 -0.9979 -0.0057
vn -0.2168 0.5552 0.8030
vn -0.8261 -0.1550 0.5419
vn -0.9577 0.1343 0.2545
vn 0.1875 -0.9801 0.0660
vn 0.5715 -0.8162 -0.0851
vn 0.2104 -0.9715 0.1089
vn 0.2409 -0.5311 0.8123
vn 0.1469 -0.9790 0.1414
vn 0.1570 -0.9801 0.1213
vn 0.1557 -0.9776 0.1415
vn 0.5172 -0.6306 0.5786
# 80 vertex normals

vt 0.6000 1.0000 1.0000
vt 0.5000 0.8238 1.0000
vt 0.7000 0.8238 1.0000
vt 0.5000 0.6476 1.0000
vt 0.6000 0.6762 1.0000
vt 0.7000 0.6476 1.0000
vt 0.8000 1.0000 1.0000
vt 0.9000 0.8238 1.0000
vt 0.8000 0.6762 1.0000
vt 0.9000 0.6476 1.0000
vt 0.0000 1.0000 1.0000
vt -0.1000 0.8238 1.0000
vt 0.1000 0.8238 1.0000
vt -0.1000 0.6476 1.0000
vt 0.0000 0.6762 1.0000
vt 0.1000 0.6476 1.0000
vt 0.2000 1.0000 1.0000
vt 0.3000 0.8238 1.0000
vt 0.2000 0.6762 1.0000
vt 0.3000 0.6476 1.0000
vt 0.4000 1.0000 1.0000
vt 0.4000 0.6762 1.0000
vt 0.4500 0.5000 1.0000
vt 0.5500 0.5000 1.0000
vt 0.4000 0.3524 1.0000
vt 0.5000 0.3238 1.0000
vt 0.6000 0.3524 1.0000
vt 0.6500 0.5000 1.0000
vt 0.7500 0.5000 1.0000
vt 0.7000 0.3238 1.0000
vt 0.8000 0.3524 1.0000
vt 0.8500 0.5000 1.0000
vt 0.9500 0.5000 1.0000
vt 0.9000 0.3238 1.0000
vt -0.0500 0.5000 1.0000
vt -0.1000 0.3238 1.0000
vt 0.0000 0.3524 1.0000
vt 0.0500 0.5000 1.0000
vt 0.1500 0.5000 1.0000
vt 0.1000 0.3238 1.0000
vt 0.2000 0.3524 1.0000
vt 0.2500 0.5000 1.0000
vt 0.3500 0.5000 1.0000
vt 0.3000 0.3238 1.0000
vt 0.7000 0.0000 1.0000
vt 0.8000 0.1762 1.0000
vt 0.6000 0.1762 1.0000
vt -0.1000 0.0000 1.0000
vt 0.0000 0.1762 1.0000
vt -0.2000 0.1762 1.0000
vt 0.1000 0.0000 1.0000
vt 0.2000 0.1762 1.0000
vt 0.3000 0.0000 1.0000
vt 0.4000 0.1762 1.0000
vt 0.5000 0.0000 1.0000
# 55 texture coords

g GeoSphere001
usemtl wire_198225087
s off
f 1/1/1 2/2/1 3/3/1 
f 2/2/2 4/4/2 5/5/2 
f 2/2/3 5/5/3 3/3/3 
f 3/3/4 5/5/4 6/6/4 
f 1/7/5 3/3/5 7/8/5 
f 3/3/6 6/6/6 8/9/6 
f 3/3/7 8/9/7 7/8/7 
f 7/8/8 8/9/8 9/10/8 
f 1/11/9 7/12/9 10/13/9 
f 7/12/10 9/14/10 11/15/10 
f 7/12/11 11/15/11 10/13/11 
f 10/13/12 11/15/12 12/16/12 
f 1/17/13 10/13/13 13/18/13 
f 10/13/14 12/16/14 14/19/14 
f 10/13/15 14/19/15 13/18/15 
f 13/18/16 14/19/16 15/20/16 
f 1/21/17 13/18/17 2/2/17 
f 13/18/18 15/20/18 16/22/18 
f 13/18/19 16/22/19 2/2/19 
f 2/2/20 16/22/20 4/4/20 
f 4/4/21 17/23/21 18/24/21 
f 17/23/22 19/25/22 20/26/22 
f 17/23/23 20/26/23 18/24/23 
f 18/24/24 20/26/24 21/27/24 
f 6/6/25 22/28/25 23/29/25 
f 22/28/26 21/27/26 24/30/26 
f 22/28/27 24/30/27 23/29/27 
f 23/29/28 24/30/28 25/31/28 
f 9/10/29 26/32/29 27/33/29 
f 26/32/30 25/31/30 28/34/30 
f 26/32/31 28/34/31 27/33/31 
f 27/35/32 28/36/32 29/37/32 
f 12/16/33 30/38/33 31/39/33 
f 30/38/34 29/37/34 32/40/34 
f 30/38/35 32/40/35 31/39/35 
f 31/39/36 32/40/36 33/41/36 
f 15/20/37 34/42/37 35/43/37 
f 34/42/38 33/41/38 36/44/38 
f 34/42/39 36/44/39 35/43/39 
f 35/43/40 36/44/40 19/25/40 
f 21/27/41 22/28/41 18/24/41 
f 22/28/42 6/6/42 5/5/42 
f 22/28/43 5/5/43 18/24/43 
f 18/24/44 5/5/44 4/4/44 
f 25/31/45 26/32/45 23/29/45 
f 26/32/46 9/10/46 8/9/46 
f 26/32/47 8/9/47 23/29/47 
f 23/29/48 8/9/48 6/6/48 
f 29/37/49 30/38/49 27/35/49 
f 30/38/50 12/16/50 11/15/50 
f 30/38/51 11/15/51 27/35/51 
f 27/35/52 11/15/52 9/14/52 
f 33/41/53 34/42/53 31/39/53 
f 34/42/54 15/20/54 14/19/54 
f 34/42/55 14/19/55 31/39/55 
f 31/39/56 14/19/56 12/16/56 
f 19/25/57 17/23/57 35/43/57 
f 17/23/58 4/4/58 16/22/58 
f 17/23/59 16/22/59 35/43/59 
f 35/43/60 16/22/60 15/20/60 
f 37/45/61 38/46/61 39/47/61 
f 38/46/62 25/31/62 24/30/62 
f 38/46/63 24/30/63 39/47/63 
f 39/47/64 24/30/64 21/27/64 
f 37/48/65 40/49/65 38/50/65 
f 40/49/66 29/37/66 28/36/66 
f 40/49/67 28/36/67 38/50/67 
f 38/46/68 28/34/68 25/31/68 
f 37/51/69 41/52/69 40/49/69 
f 41/52/70 33/41/70 32/40/70 
f 41/52/71 32/40/71 40/49/71 
f 40/49/72 32/40/72 29/37/72 
f 37/53/73 42/54/73 41/52/73 
f 42/54/74 19/25/74 36/44/74 
f 42/54/75 36/44/75 41/52/75 
f 41/52/76 36/44/76 33/41/76 
f 37/55/77 39/47/77 42/54/77 
f 39/47/78 21/27/78 20/26/78 
f 39/47/79 20/26/79 42/54/79 
f 42/54/80 20/26/80 19/25/80 
# 0 polygons - 80 triangles

