# 3ds Max Wavefront OBJ Exporter v0.97b - (c)2007 guruware
# File Created: 15.11.2014 15:25:20

mtllib Rock7.mtl

#
# object GeoSphere001
#

v  -0.1078 1.0859 0.1078
v  0.5550 0.9030 -0.0373
v  0.2265 0.8793 -0.4408
v  1.0175 0.5872 -0.0238
v  0.6694 0.4980 -0.4608
v  0.3124 0.4534 -0.8059
v  -0.4109 0.9069 -0.1798
v  -0.2904 0.4430 -0.8624
v  -0.7401 0.4124 -0.4439
v  -0.5226 1.0559 0.4382
v  -0.7738 0.5595 0.0294
v  -0.6899 0.5924 0.6075
v  0.0953 0.9627 0.5592
v  -0.2978 0.5945 0.7557
v  0.2113 0.4949 0.8954
v  0.7280 0.6720 0.5392
v  1.1475 0.1521 0.1598
v  1.0085 0.0772 -0.4583
v  0.8876 -0.3126 0.3677
v  0.9965 -0.3776 -0.1667
v  0.8258 -0.4789 -0.6838
v  0.7118 0.0219 -0.8908
v  0.1522 -0.1078 -1.0859
v  0.4028 -0.5068 -0.9048
v  -0.0551 -0.5432 -1.0263
v  -0.4638 0.0161 -0.9047
v  -0.8936 -0.0887 -0.3226
v  -0.5677 -0.5594 -0.6567
v  -0.7891 -0.4281 -0.1617
v  -0.7546 0.0285 0.2955
v  -0.5458 -0.0722 0.7133
v  -0.5611 -0.3524 0.3433
v  -0.0792 -0.3843 0.6750
v  0.0306 0.0968 0.9141
v  0.6298 0.1243 0.7272
v  0.3937 -0.4512 0.7132
v  0.0968 -0.9141 -0.0968
v  -0.0735 -0.7275 -0.6119
v  0.4529 -0.9009 -0.3538
v  -0.3358 -0.7275 0.0580
v  -0.2205 -0.6924 0.3881
v  0.4799 -0.7372 0.2643
# 42 vertices

vn 0.2121 0.9501 -0.2286
vn 0.4885 0.6927 -0.5306
vn 0.5553 0.6708 -0.4916
vn 0.5051 0.6183 -0.6022
vn -0.1326 0.8982 -0.4191
vn 0.0591 0.6566 -0.7519
vn -0.2009 0.7934 -0.5746
vn -0.5425 0.6472 -0.5356
vn -0.2839 0.9192 -0.2729
vn -0.7406 0.6249 -0.2470
vn -0.7432 0.6073 -0.2807
vn -0.9208 0.3735 0.1124
vn 0.1037 0.9704 0.2183
vn -0.3219 0.4252 0.8459
vn -0.0834 0.5370 0.8395
vn -0.1154 0.5607 0.8199
vn 0.2898 0.9484 0.1285
vn 0.3012 0.6046 0.7374
vn 0.4123 0.8816 0.2296
vn 0.5533 0.8172 0.1615
vn 0.9538 0.1850 -0.2369
vn 0.8896 -0.3949 0.2293
vn 0.9679 -0.1532 -0.1990
vn 0.9415 -0.1992 -0.2718
vn 0.2236 0.3832 -0.8962
vn 0.4615 -0.2471 -0.8520
vn 0.3618 -0.1872 -0.9133
vn 0.2668 -0.2543 -0.9296
vn -0.8090 0.1079 -0.5779
vn -0.5629 -0.2393 -0.7911
vn -0.7887 -0.1176 -0.6035
vn -0.8708 -0.4021 -0.2828
vn -0.8991 -0.1283 0.4185
vn -0.8263 -0.3661 0.4279
vn -0.8567 -0.3935 0.3334
vn -0.4300 -0.7111 0.5563
vn 0.3003 -0.0917 0.9494
vn -0.1317 -0.4169 0.8994
vn 0.3006 -0.1463 0.9424
vn 0.6016 -0.2651 0.7535
vn 0.8264 -0.0439 -0.5613
vn 0.5169 0.5987 -0.6119
vn 0.6647 0.5326 -0.5240
vn 0.6248 0.5000 -0.5998
vn -0.2817 0.0028 -0.9595
vn -0.6544 0.3330 -0.6789
vn -0.2411 0.1923 -0.9513
vn 0.0770 0.4274 -0.9008
vn -0.9528 -0.1760 0.2476
vn -0.9893 0.0352 0.1416
vn -0.9761 0.0682 0.2065
vn -0.9551 0.2568 -0.1479
vn -0.1944 -0.4006 0.8954
vn -0.2340 0.1514 0.9604
vn -0.3462 0.0694 0.9356
vn -0.3529 0.0720 0.9329
vn 0.7367 -0.1138 0.6666
vn 0.8363 0.4055 0.3689
vn 0.7326 0.0997 0.6733
vn 0.5101 0.1960 0.8374
vn -0.1709 -0.9431 -0.2852
vn 0.1761 -0.9023 -0.3934
vn 0.0180 -0.8125 -0.5827
vn 0.3454 -0.7482 -0.5665
vn -0.4416 -0.8804 -0.1730
vn -0.5440 -0.8388 -0.0208
vn -0.3098 -0.9430 -0.1214
vn -0.2620 -0.8774 -0.4018
vn -0.3225 -0.9228 0.2108
vn -0.5299 -0.4348 0.7281
vn -0.6917 -0.6518 0.3109
vn -0.6314 -0.6726 0.3859
vn 0.0174 -0.9050 0.4250
vn 0.5484 -0.6536 0.5216
vn 0.0423 -0.8390 0.5425
vn -0.1511 -0.6356 0.7571
vn 0.2096 -0.9474 0.2419
vn 0.7073 -0.7003 -0.0962
vn 0.6534 -0.7384 0.1670
vn 0.6754 -0.7029 0.2231
# 80 vertex normals

vt 0.6000 1.0000 1.0000
vt 0.5000 0.8238 1.0000
vt 0.7000 0.8238 1.0000
vt 0.5000 0.6476 1.0000
vt 0.6000 0.6762 1.0000
vt 0.7000 0.6476 1.0000
vt 0.8000 1.0000 1.0000
vt 0.9000 0.8238 1.0000
vt 0.8000 0.6762 1.0000
vt 0.9000 0.6476 1.0000
vt 0.0000 1.0000 1.0000
vt -0.1000 0.8238 1.0000
vt 0.1000 0.8238 1.0000
vt -0.1000 0.6476 1.0000
vt 0.0000 0.6762 1.0000
vt 0.1000 0.6476 1.0000
vt 0.2000 1.0000 1.0000
vt 0.3000 0.8238 1.0000
vt 0.2000 0.6762 1.0000
vt 0.3000 0.6476 1.0000
vt 0.4000 1.0000 1.0000
vt 0.4000 0.6762 1.0000
vt 0.4500 0.5000 1.0000
vt 0.5500 0.5000 1.0000
vt 0.4000 0.3524 1.0000
vt 0.5000 0.3238 1.0000
vt 0.6000 0.3524 1.0000
vt 0.6500 0.5000 1.0000
vt 0.7500 0.5000 1.0000
vt 0.7000 0.3238 1.0000
vt 0.8000 0.3524 1.0000
vt 0.8500 0.5000 1.0000
vt 0.9500 0.5000 1.0000
vt 0.9000 0.3238 1.0000
vt -0.0500 0.5000 1.0000
vt -0.1000 0.3238 1.0000
vt 0.0000 0.3524 1.0000
vt 0.0500 0.5000 1.0000
vt 0.1500 0.5000 1.0000
vt 0.1000 0.3238 1.0000
vt 0.2000 0.3524 1.0000
vt 0.2500 0.5000 1.0000
vt 0.3500 0.5000 1.0000
vt 0.3000 0.3238 1.0000
vt 0.7000 0.0000 1.0000
vt 0.8000 0.1762 1.0000
vt 0.6000 0.1762 1.0000
vt -0.1000 0.0000 1.0000
vt 0.0000 0.1762 1.0000
vt -0.2000 0.1762 1.0000
vt 0.1000 0.0000 1.0000
vt 0.2000 0.1762 1.0000
vt 0.3000 0.0000 1.0000
vt 0.4000 0.1762 1.0000
vt 0.5000 0.0000 1.0000
# 55 texture coords

g GeoSphere001
usemtl wire_198225087
s off
f 1/1/1 2/2/1 3/3/1 
f 2/2/2 4/4/2 5/5/2 
f 2/2/3 5/5/3 3/3/3 
f 3/3/4 5/5/4 6/6/4 
f 1/7/5 3/3/5 7/8/5 
f 3/3/6 6/6/6 8/9/6 
f 3/3/7 8/9/7 7/8/7 
f 7/8/8 8/9/8 9/10/8 
f 1/11/9 7/12/9 10/13/9 
f 7/12/10 9/14/10 11/15/10 
f 7/12/11 11/15/11 10/13/11 
f 10/13/12 11/15/12 12/16/12 
f 1/17/13 10/13/13 13/18/13 
f 10/13/14 12/16/14 14/19/14 
f 10/13/15 14/19/15 13/18/15 
f 13/18/16 14/19/16 15/20/16 
f 1/21/17 13/18/17 2/2/17 
f 13/18/18 15/20/18 16/22/18 
f 13/18/19 16/22/19 2/2/19 
f 2/2/20 16/22/20 4/4/20 
f 4/4/21 17/23/21 18/24/21 
f 17/23/22 19/25/22 20/26/22 
f 17/23/23 20/26/23 18/24/23 
f 18/24/24 20/26/24 21/27/24 
f 6/6/25 22/28/25 23/29/25 
f 22/28/26 21/27/26 24/30/26 
f 22/28/27 24/30/27 23/29/27 
f 23/29/28 24/30/28 25/31/28 
f 9/10/29 26/32/29 27/33/29 
f 26/32/30 25/31/30 28/34/30 
f 26/32/31 28/34/31 27/33/31 
f 27/35/32 28/36/32 29/37/32 
f 12/16/33 30/38/33 31/39/33 
f 30/38/34 29/37/34 32/40/34 
f 30/38/35 32/40/35 31/39/35 
f 31/39/36 32/40/36 33/41/36 
f 15/20/37 34/42/37 35/43/37 
f 34/42/38 33/41/38 36/44/38 
f 34/42/39 36/44/39 35/43/39 
f 35/43/40 36/44/40 19/25/40 
f 21/27/41 22/28/41 18/24/41 
f 22/28/42 6/6/42 5/5/42 
f 22/28/43 5/5/43 18/24/43 
f 18/24/44 5/5/44 4/4/44 
f 25/31/45 26/32/45 23/29/45 
f 26/32/46 9/10/46 8/9/46 
f 26/32/47 8/9/47 23/29/47 
f 23/29/48 8/9/48 6/6/48 
f 29/37/49 30/38/49 27/35/49 
f 30/38/50 12/16/50 11/15/50 
f 30/38/51 11/15/51 27/35/51 
f 27/35/52 11/15/52 9/14/52 
f 33/41/53 34/42/53 31/39/53 
f 34/42/54 15/20/54 14/19/54 
f 34/42/55 14/19/55 31/39/55 
f 31/39/56 14/19/56 12/16/56 
f 19/25/57 17/23/57 35/43/57 
f 17/23/58 4/4/58 16/22/58 
f 17/23/59 16/22/59 35/43/59 
f 35/43/60 16/22/60 15/20/60 
f 37/45/61 38/46/61 39/47/61 
f 38/46/62 25/31/62 24/30/62 
f 38/46/63 24/30/63 39/47/63 
f 39/47/64 24/30/64 21/27/64 
f 37/48/65 40/49/65 38/50/65 
f 40/49/66 29/37/66 28/36/66 
f 40/49/67 28/36/67 38/50/67 
f 38/46/68 28/34/68 25/31/68 
f 37/51/69 41/52/69 40/49/69 
f 41/52/70 33/41/70 32/40/70 
f 41/52/71 32/40/71 40/49/71 
f 40/49/72 32/40/72 29/37/72 
f 37/53/73 42/54/73 41/52/73 
f 42/54/74 19/25/74 36/44/74 
f 42/54/75 36/44/75 41/52/75 
f 41/52/76 36/44/76 33/41/76 
f 37/55/77 39/47/77 42/54/77 
f 39/47/78 21/27/78 20/26/78 
f 39/47/79 20/26/79 42/54/79 
f 42/54/80 20/26/80 19/25/80 
# 0 polygons - 80 triangles

